<?xml version="1.0" encoding="utf-8"?>
<!-- Generator: Adobe Illustrator 26.1.0, SVG Export Plug-In . SVG Version: 6.00 Build 0)  -->
<svg version="1.1" id="Capa_1" xmlns="http://www.w3.org/2000/svg" xmlns:xlink="http://www.w3.org/1999/xlink" x="0px" y="0px"
	 viewBox="0 0 100 125" style="enable-background:new 0 0 100 125;" xml:space="preserve">
<style type="text/css">
	.st0{fill:#F25E14;}
</style>
<path class="st0" d="M50,0C22.4,0,0,22.4,0,50s22.4,50,50,50s50-22.4,50-50S77.6,0,50,0z M58.6,75.8c-0.2,0.3-0.5,0.5-0.8,0.7
	c-4,2.9-8.8,4.4-13.8,4.5c-4.5,0-7-3.2-6-7.6c1.3-5.3,2.6-10.5,3.8-15.8c0.4-0.9,0.3-2-0.1-2.9c-0.4-0.6-1-1.1-1.7-1.3
	c-0.4-0.1-0.8-0.2-1.2-0.2c-0.5-0.1-1.2-0.2-1.5-0.7l-0.1-0.2c-0.5-0.7-0.3-1.8,0.4-2.3c0,0,0,0,0.1,0l0.9-0.6l1.3-0.8
	c0.8-0.4,1.6-0.8,2.5-1.1c1.7-0.7,3.5-1.2,5.4-1.5c1.1-0.2,2.2-0.3,3.3-0.4c0.9,0,1.8,0.1,2.7,0.3c3.2,0.8,4.9,3.7,4,7.2
	c-1.2,5.3-2.6,10.6-3.9,15.9c-0.6,2.5,0,3.6,2.5,4.3c0.4,0.1,0.8,0.2,1.2,0.3C59.1,73.9,59.4,74.7,58.6,75.8z M54.3,36.1
	c-4.7,0-8.5-3.9-8.5-8.6s3.9-8.5,8.6-8.5s8.5,3.9,8.5,8.6c0,0,0,0,0,0.1C62.8,32.3,59,36.1,54.3,36.1z"/>
</svg>
